<svg width="53" height="67" viewBox="0 0 53 67" fill="none" xmlns="http://www.w3.org/2000/svg">
<g clip-path="url(#clip0_598_234)">
<path d="M-0.000244141 13.73V34.27C-0.000244141 46.82 10.2098 57.02 22.7498 57.02H35.4898L33.8398 58.67C32.1098 60.4 32.1098 63.21 33.8398 64.95C34.7098 65.82 35.8398 66.25 36.9798 66.25C38.1198 66.25 39.2498 65.82 40.1198 64.95L52.5498 52.52L40.1198 40.09C38.3898 38.36 35.5798 38.36 33.8398 40.09C32.1098 41.82 32.1098 44.63 33.8398 46.37L35.6298 48.16H22.7498C15.0998 48.16 8.86976 41.94 8.86976 34.28V13.73" fill="url(#paint0_linear_598_234)"/>
<path d="M52.5598 52.52V31.98C52.5598 19.43 42.3498 9.23 29.8098 9.23H17.0698L18.7198 7.58C20.4498 5.85 20.4498 3.04 18.7198 1.3C17.8498 0.43 16.7198 0 15.5798 0C14.4398 0 13.3098 0.43 12.4398 1.3L-0.000244141 13.73L12.4298 26.16C14.1598 27.89 16.9698 27.89 18.7098 26.16C20.4398 24.43 20.4398 21.62 18.7098 19.88L16.9198 18.09H29.7998C37.4498 18.09 43.6798 24.31 43.6798 31.97V52.51" fill="url(#paint1_linear_598_234)"/>
</g>
<defs>
<linearGradient id="paint0_linear_598_234" x1="54.6798" y1="39.99" x2="-17.8902" y2="39.99" gradientUnits="userSpaceOnUse">
<stop stop-color="#971DF5"/>
<stop offset="1" stop-color="#B86AF5" stop-opacity="0"/>
</linearGradient>
<linearGradient id="paint1_linear_598_234" x1="-2.13024" y1="26.26" x2="70.4498" y2="26.26" gradientUnits="userSpaceOnUse">
<stop stop-color="#971DF5"/>
<stop offset="1" stop-color="#B86AF5" stop-opacity="0"/>
</linearGradient>
<clipPath id="clip0_598_234">
<rect width="52.56" height="66.25" fill="white" transform="translate(-0.000244141)"/>
</clipPath>
</defs>
</svg>
