<svg width="56" height="70" viewBox="0 0 56 70" fill="none" xmlns="http://www.w3.org/2000/svg">
<g clip-path="url(#clip0_598_195)">
<path fill-rule="evenodd" clip-rule="evenodd" d="M27.53 19.2999C21.72 19.2999 16.99 24.0299 16.99 29.8399C16.99 35.6499 21.72 40.3799 27.53 40.3799C33.34 40.3799 38.07 35.6499 38.07 29.8399C38.07 24.0299 33.34 19.2999 27.53 19.2999Z" fill="url(#paint0_linear_598_195)"/>
<path fill-rule="evenodd" clip-rule="evenodd" d="M27.53 -6.10352e-05L0 12.8999V32.1799C0 38.7599 2.62 45.0799 7.27 49.7399L27.53 69.9999L47.79 49.7399C52.45 45.0799 55.06 38.7699 55.06 32.1799V12.8999L27.53 -6.10352e-05ZM27.53 45.3499C18.98 45.3499 12.02 38.3899 12.02 29.8399C12.02 21.2899 18.98 14.3299 27.53 14.3299C36.08 14.3299 43.04 21.2899 43.04 29.8399C43.04 38.3899 36.08 45.3499 27.53 45.3499Z" fill="url(#paint1_linear_598_195)"/>
</g>
<defs>
<linearGradient id="paint0_linear_598_195" x1="27.53" y1="17.4199" x2="27.53" y2="45.9699" gradientUnits="userSpaceOnUse">
<stop offset="0.18" stop-color="#971DF5"/>
<stop offset="1" stop-color="#B86AF5" stop-opacity="0"/>
</linearGradient>
<linearGradient id="paint1_linear_598_195" x1="27.53" y1="85.2499" x2="27.53" y2="-13.8601" gradientUnits="userSpaceOnUse">
<stop offset="0.18" stop-color="#971DF5"/>
<stop offset="1" stop-color="#B86AF5" stop-opacity="0"/>
</linearGradient>
<clipPath id="clip0_598_195">
<rect width="55.07" height="69.99" fill="white"/>
</clipPath>
</defs>
</svg>
