<svg width="280" height="34" viewBox="0 0 280 34" fill="none" xmlns="http://www.w3.org/2000/svg">
<path d="M0.212 33V0.44H6.086V13.728H20.848V0.44H26.722V33H20.848V18.942H6.086V33H0.212ZM41.5521 33V5.39H31.0801V0.44H57.9201V5.39H47.4481V33H41.5521ZM69.4594 33.418C67.9781 33.418 66.4821 33.3007 64.9714 33.066C63.4607 32.8313 62.0527 32.494 60.7474 32.054V27.214C61.6567 27.522 62.6101 27.7787 63.6074 27.984C64.6194 28.1893 65.6241 28.3507 66.6214 28.468C67.6187 28.5707 68.5647 28.622 69.4594 28.622C71.8207 28.622 73.5221 28.226 74.5634 27.434C75.6047 26.642 76.1254 25.52 76.1254 24.068C76.1254 22.8213 75.7367 21.8607 74.9594 21.186C74.1967 20.4967 72.8034 19.8953 70.7794 19.382L68.5794 18.81C65.7634 18.0913 63.6367 16.9913 62.1994 15.51C60.7767 14.014 60.0654 12.0487 60.0654 9.614C60.0654 6.622 61.1361 4.27533 63.2774 2.574C65.4187 0.872665 68.6307 0.0219984 72.9134 0.0219984C74.3067 0.0219984 75.6487 0.109998 76.9394 0.285998C78.2447 0.447332 79.4107 0.681999 80.4374 0.989999V5.83C79.3667 5.49267 78.2081 5.24333 76.9614 5.082C75.7147 4.906 74.4681 4.818 73.2214 4.818C71.4467 4.818 70.0241 5.00133 68.9534 5.368C67.8974 5.73467 67.1274 6.25533 66.6434 6.93C66.1741 7.59 65.9394 8.382 65.9394 9.306C65.9394 10.4793 66.2841 11.4033 66.9734 12.078C67.6774 12.738 68.9387 13.31 70.7574 13.794L72.9574 14.366C75.0254 14.8793 76.7267 15.554 78.0614 16.39C79.4107 17.2113 80.4081 18.2233 81.0534 19.426C81.6987 20.614 82.0214 22.0293 82.0214 23.672C82.0214 25.7107 81.5227 27.456 80.5254 28.908C79.5281 30.36 78.0907 31.4747 76.2134 32.252C74.3507 33.0293 72.0994 33.418 69.4594 33.418ZM99.2945 33V0.44H105.168V33H99.2945ZM112.464 33V0.44H118.404L134.97 25.828H133.87V0.44H139.414V33H133.474L116.908 7.612H118.008V33H112.464ZM146.73 33V0.44H168.532V5.28H152.604V33H146.73ZM150.558 19.338V14.498H166.31V19.338H150.558ZM186.405 33.418C183.457 33.418 180.883 32.824 178.683 31.636C176.483 30.448 174.767 28.622 173.535 26.158C172.318 23.694 171.709 20.548 171.709 16.72C171.709 12.892 172.318 9.746 173.535 7.282C174.767 4.818 176.483 2.992 178.683 1.804C180.883 0.615998 183.457 0.0219984 186.405 0.0219984C189.368 0.0219984 191.949 0.615998 194.149 1.804C196.349 2.992 198.058 4.82533 199.275 7.304C200.492 9.768 201.101 12.9067 201.101 16.72C201.101 20.5333 200.492 23.6793 199.275 26.158C198.058 28.622 196.342 30.448 194.127 31.636C191.927 32.824 189.353 33.418 186.405 33.418ZM186.405 28.6C188.194 28.6 189.734 28.2113 191.025 27.434C192.316 26.6567 193.306 25.41 193.995 23.694C194.699 21.9633 195.051 19.6827 195.051 16.852C195.051 13.9333 194.699 11.594 193.995 9.834C193.291 8.074 192.294 6.80533 191.003 6.028C189.712 5.236 188.18 4.84 186.405 4.84C184.645 4.84 183.112 5.22866 181.807 6.006C180.516 6.76866 179.519 8.01533 178.815 9.746C178.111 11.462 177.759 13.7427 177.759 16.588C177.759 19.5213 178.111 21.868 178.815 23.628C179.519 25.388 180.516 26.6567 181.807 27.434C183.098 28.2113 184.63 28.6 186.405 28.6ZM214.775 33.418C213.293 33.418 211.797 33.3007 210.287 33.066C208.776 32.8313 207.368 32.494 206.063 32.054V27.214C206.972 27.522 207.925 27.7787 208.923 27.984C209.935 28.1893 210.939 28.3507 211.937 28.468C212.934 28.5707 213.88 28.622 214.775 28.622C217.136 28.622 218.837 28.226 219.879 27.434C220.92 26.642 221.441 25.52 221.441 24.068C221.441 22.8213 221.052 21.8607 220.275 21.186C219.512 20.4967 218.119 19.8953 216.095 19.382L213.895 18.81C211.079 18.0913 208.952 16.9913 207.515 15.51C206.092 14.014 205.381 12.0487 205.381 9.614C205.381 6.622 206.451 4.27533 208.593 2.574C210.734 0.872665 213.946 0.0219984 218.229 0.0219984C219.622 0.0219984 220.964 0.109998 222.255 0.285998C223.56 0.447332 224.726 0.681999 225.753 0.989999V5.83C224.682 5.49267 223.523 5.24333 222.277 5.082C221.03 4.906 219.783 4.818 218.537 4.818C216.762 4.818 215.339 5.00133 214.269 5.368C213.213 5.73467 212.443 6.25533 211.959 6.93C211.489 7.59 211.255 8.382 211.255 9.306C211.255 10.4793 211.599 11.4033 212.289 12.078C212.993 12.738 214.254 13.31 216.073 13.794L218.273 14.366C220.341 14.8793 222.042 15.554 223.377 16.39C224.726 17.2113 225.723 18.2233 226.369 19.426C227.014 20.614 227.337 22.0293 227.337 23.672C227.337 25.7107 226.838 27.456 225.841 28.908C224.843 30.36 223.406 31.4747 221.529 32.252C219.666 33.0293 217.415 33.418 214.775 33.418ZM239.847 33V16.588L241.057 20.922L228.055 0.44H234.369L243.785 15.356H242.047L251.353 0.44H257.227L244.511 20.922L245.743 16.654V33H239.847ZM267.41 33.418C265.928 33.418 264.432 33.3007 262.922 33.066C261.411 32.8313 260.003 32.494 258.698 32.054V27.214C259.607 27.522 260.56 27.7787 261.558 27.984C262.57 28.1893 263.574 28.3507 264.572 28.468C265.569 28.5707 266.515 28.622 267.41 28.622C269.771 28.622 271.472 28.226 272.514 27.434C273.555 26.642 274.076 25.52 274.076 24.068C274.076 22.8213 273.687 21.8607 272.91 21.186C272.147 20.4967 270.754 19.8953 268.73 19.382L266.53 18.81C263.714 18.0913 261.587 16.9913 260.15 15.51C258.727 14.014 258.016 12.0487 258.016 9.614C258.016 6.622 259.086 4.27533 261.228 2.574C263.369 0.872665 266.581 0.0219984 270.864 0.0219984C272.257 0.0219984 273.599 0.109998 274.89 0.285998C276.195 0.447332 277.361 0.681999 278.388 0.989999V5.83C277.317 5.49267 276.158 5.24333 274.912 5.082C273.665 4.906 272.418 4.818 271.172 4.818C269.397 4.818 267.974 5.00133 266.904 5.368C265.848 5.73467 265.078 6.25533 264.594 6.93C264.124 7.59 263.89 8.382 263.89 9.306C263.89 10.4793 264.234 11.4033 264.924 12.078C265.628 12.738 266.889 13.31 268.708 13.794L270.908 14.366C272.976 14.8793 274.677 15.554 276.012 16.39C277.361 17.2113 278.358 18.2233 279.004 19.426C279.649 20.614 279.972 22.0293 279.972 23.672C279.972 25.7107 279.473 27.456 278.476 28.908C277.478 30.36 276.041 31.4747 274.164 32.252C272.301 33.0293 270.05 33.418 267.41 33.418Z" fill="#373738"/>
</svg>
