<svg width="58" height="67" viewBox="0 0 58 67" fill="none" xmlns="http://www.w3.org/2000/svg">
<g clip-path="url(#clip0_598_220)">
<path fill-rule="evenodd" clip-rule="evenodd" d="M56.6 18.85C54.02 7.88 44.18 0.09 32.8 0.01H30.94V0C19.55 0 9.45996 7.29 5.99996 18.04L5.95996 18.17C5.15996 20.66 5.24996 23.36 6.22996 25.79L7.38996 28.67L0.239958 41.84C-0.440042 43.04 0.439958 44.53 1.82996 44.53L7.68996 45.5V53.8C7.68996 57.29 10.55 59.65 14.08 59.65H22V65C22 66.18 23.12 67.05 24.26 66.75L45.08 61.39C45.88 61.19 46.43 60.47 46.43 59.64V51.52C46.43 48.72 47.46 45.99 49.43 44.01C55.88 37.54 58.78 28.09 56.6 18.83V18.85ZM46.62 27.84H37.48L43.94 34.3C44.91 35.27 44.91 36.85 43.94 37.82C43.45 38.31 42.82 38.55 42.18 38.55C41.54 38.55 40.91 38.31 40.42 37.82L33.96 31.36V40.5C33.96 41.87 32.85 42.99 31.47 42.99C30.09 42.99 28.98 41.88 28.98 40.5V31.36L22.52 37.82C22.03 38.31 21.4 38.55 20.76 38.55C20.12 38.55 19.49 38.31 19 37.82C18.03 36.85 18.03 35.27 19 34.3L25.46 27.84H16.32C14.95 27.84 13.83 26.73 13.83 25.35C13.83 23.97 14.94 22.86 16.32 22.86H25.46L19 16.4C18.03 15.43 18.03 13.85 19 12.88C19.97 11.91 21.55 11.91 22.52 12.88L28.98 19.34V10.2C28.98 8.83 30.09 7.71 31.47 7.71C32.85 7.71 33.96 8.82 33.96 10.2V19.34L40.42 12.88C41.39 11.91 42.97 11.91 43.94 12.88C44.91 13.85 44.91 15.43 43.94 16.4L37.48 22.86H46.62C47.99 22.86 49.11 23.97 49.11 25.35C49.11 26.73 48 27.84 46.62 27.84Z" fill="url(#paint0_linear_598_220)"/>
</g>
<defs>
<linearGradient id="paint0_linear_598_220" x1="8.86996" y1="14.68" x2="56.38" y2="55.26" gradientUnits="userSpaceOnUse">
<stop stop-color="#971DF5"/>
<stop offset="1" stop-color="#B86AF5" stop-opacity="0"/>
</linearGradient>
<clipPath id="clip0_598_220">
<rect width="57.32" height="66.81" fill="white"/>
</clipPath>
</defs>
</svg>
