<svg width="97" height="97" viewBox="0 0 97 97" fill="none" xmlns="http://www.w3.org/2000/svg">
<g clip-path="url(#clip0_598_317)">
<path d="M0 81.1235V91.4603C0 94.5171 2.49563 97.0002 5.5679 97.0002H11.0413V96.8967L0 81.1235Z" fill="#971DF5"/>
<path d="M0 51.9189V67.6921L20.5133 97H31.5546L0 51.9189Z" fill="#971DF5"/>
<path d="M45.6208 32.7598H0V41.7703H45.6208C48.1259 41.7703 50.1489 39.7575 50.1489 37.265C50.1489 34.7726 48.1259 32.7598 45.6208 32.7598Z" fill="#971DF5"/>
<path d="M67.6467 37.2651C67.6467 25.9126 58.3637 16.6763 46.9537 16.6763H0V25.6868H46.9537C53.3724 25.6868 58.5906 30.8787 58.5906 37.2651C58.5906 43.6515 53.3724 48.8434 46.9537 48.8434H7.14657L40.8848 96.9907H51.9261L24.5025 57.854H46.9443C58.3542 57.854 67.6372 48.6177 67.6372 37.2651H67.6467Z" fill="#971DF5"/>
<path d="M84.8136 37.2274C84.7947 16.7514 67.3536 0 46.7741 0H5.5679C2.49563 0 0 2.48308 0 5.5399V9.01057H46.8876C62.438 9.01057 75.4644 21.2473 75.7575 36.7195C76.0505 52.1917 63.2037 65.5194 47.3697 65.5194H38.4932L61.4454 97H72.6379L55.6034 73.6271C72.326 69.8836 84.8514 54.9852 84.8325 37.2274H84.8136Z" fill="#971DF5"/>
</g>
<defs>
<clipPath id="clip0_598_317">
<rect width="97" height="97" fill="white"/>
</clipPath>
</defs>
</svg>
