<svg width="479" height="97" viewBox="0 0 479 97" fill="none" xmlns="http://www.w3.org/2000/svg">
<g clip-path="url(#clip0_598_317)">
<path d="M0 81.1235V91.4603C0 94.5171 2.49563 97.0002 5.5679 97.0002H11.0413V96.8967L0 81.1235Z" fill="#971DF5"/>
<path d="M0 51.9189V67.6921L20.5133 97H31.5546L0 51.9189Z" fill="#971DF5"/>
<path d="M45.6208 32.7598H0V41.7703H45.6208C48.1259 41.7703 50.1489 39.7575 50.1489 37.265C50.1489 34.7726 48.1259 32.7598 45.6208 32.7598Z" fill="#971DF5"/>
<path d="M67.6467 37.2651C67.6467 25.9126 58.3637 16.6763 46.9537 16.6763H0V25.6868H46.9537C53.3724 25.6868 58.5906 30.8787 58.5906 37.2651C58.5906 43.6515 53.3724 48.8434 46.9537 48.8434H7.14657L40.8848 96.9907H51.9261L24.5025 57.854H46.9443C58.3542 57.854 67.6372 48.6177 67.6372 37.2651H67.6467Z" fill="#971DF5"/>
<path d="M84.8136 37.2274C84.7947 16.7514 67.3536 0 46.7741 0H5.5679C2.49563 0 0 2.48308 0 5.5399V9.01057H46.8876C62.438 9.01057 75.4644 21.2473 75.7575 36.7195C76.0505 52.1917 63.2037 65.5194 47.3697 65.5194H38.4932L61.4454 97H72.6379L55.6034 73.6271C72.326 69.8836 84.8514 54.9852 84.8325 37.2274H84.8136Z" fill="#971DF5"/>
<path d="M167.425 38.3465C167.425 28.9315 160.533 22.6016 150.286 22.6016H124.299V77.8407H132.41V54.0727L158.359 77.8407H167.056V75.7903L143.224 54.0821H150.9C160.788 54.0821 167.434 47.7521 167.434 38.3371L167.425 38.3465ZM159.427 38.497C159.427 43.9805 155.646 47.2537 149.303 47.2537H132.401V29.6934H149.303C155.646 29.6934 159.427 32.9853 159.427 38.4876V38.497Z" fill="white"/>
<path d="M188.968 37.4814C176.916 37.4814 169.722 45.1846 169.722 58.0985C169.722 71.0124 176.944 78.7532 189.044 78.7532C200.265 78.7532 205.464 72.1505 206.513 66.4977V64.6166H199.376L199.282 65.1527C198.733 68.3789 195.699 72.1505 188.959 72.1505C182.219 72.1505 177.804 67.664 177.426 60.4029H207.298V56.462C207.298 44.5827 200.444 37.5003 188.949 37.5003L188.968 37.4814ZM177.596 53.8942C178.371 47.7994 182.663 44.056 188.93 44.056C195.198 44.056 199.348 47.7241 199.669 53.8942H177.596Z" fill="white"/>
<path d="M231.413 37.4814C221.317 37.4814 214.785 41.9961 213.934 49.5582V51.4017H221.374L221.43 50.828C221.913 46.2475 225.127 44.0277 231.252 44.0277C237.378 44.0277 240.015 46.3227 240.015 51.7027V52.521L226.157 54.2516C216.94 55.4085 212.072 59.7351 212.072 66.7705C212.072 73.8059 217.857 78.6874 226.8 78.6874C229.778 78.6874 236.782 78.1325 240.233 73.2604V77.8597H247.701V52.0789C247.701 42.5417 242.057 37.5003 231.385 37.5003L231.413 37.4814ZM240.034 58.9074V60.5346C240.034 67.7581 235.506 72.0659 227.915 72.0659C222.943 72.0659 219.975 69.9684 219.975 66.4507C219.975 62.933 222.414 61.2306 227.66 60.5346L240.034 58.9074Z" fill="white"/>
<path d="M264.66 22.6108H256.738V77.85H264.66V22.6108Z" fill="white"/>
<path d="M317.512 37.5192C311.301 37.5192 307.038 39.4849 304.486 43.5199C303.115 40.6512 300.005 37.5192 292.962 37.5192C287.725 37.5192 283.925 39.0241 281.373 42.0997V38.3751H273.753V77.841H281.6V54.4963C281.6 47.9312 284.993 44.31 291.157 44.31C296.186 44.31 298.53 46.5203 298.53 51.2702V77.841H306.376V54.4963C306.376 47.9312 309.76 44.31 315.896 44.31C320.858 44.31 323.269 46.5862 323.269 51.2702V77.841H331.115V50.6682C331.115 42.4289 326.029 37.5098 317.512 37.5098V37.5192Z" fill="white"/>
<path d="M366.148 21.5576C349.076 21.5576 338.46 32.5434 338.46 50.2259C338.46 67.9084 349.067 78.8942 366.148 78.8942C383.23 78.8942 393.837 67.9084 393.837 50.2259C393.837 32.5434 383.23 21.5576 366.148 21.5576ZM366.148 71.6895C354.03 71.6895 346.798 63.6665 346.798 50.2259C346.798 36.7853 354.03 28.7623 366.148 28.7623C378.267 28.7623 385.499 36.7853 385.499 50.2259C385.499 63.6665 378.267 71.6895 366.148 71.6895Z" fill="white"/>
<path d="M420.608 37.519C414.823 37.519 410.521 39.2779 407.808 42.7674V38.3844H400.076V77.8503H407.997V55.8882C407.997 48.6459 412.147 44.3193 419.095 44.3193C424.966 44.3193 427.821 47.0375 427.821 52.6338V77.8597H435.742V52.0037C435.742 42.6733 430.364 37.5379 420.598 37.5379L420.608 37.519Z" fill="white"/>
<path d="M479 56.4524C479 44.5731 472.146 37.4907 460.651 37.4907C448.599 37.4907 441.405 45.1939 441.405 58.1078C441.405 71.0217 448.627 78.7625 460.727 78.7625C471.948 78.7625 477.147 72.1598 478.196 66.507V64.6259H471.069L470.974 65.162C470.426 68.3881 467.391 72.1598 460.651 72.1598C453.911 72.1598 449.497 67.6733 449.119 60.4122H478.99V56.4712L479 56.4524ZM449.279 53.8941C450.054 47.7993 454.346 44.0558 460.614 44.0558C466.881 44.0558 471.031 47.724 471.352 53.8941H449.279Z" fill="white"/>
</g>
<defs>
<clipPath id="clip0_598_317">
<rect width="479" height="97" fill="white"/>
</clipPath>
</defs>
</svg>
