<svg width="53" height="73" viewBox="0 0 53 73" fill="none" xmlns="http://www.w3.org/2000/svg">
<g clip-path="url(#clip0_598_225)">
<path d="M34.1599 59.82H18.3699C16.8843 59.82 15.6799 61.0244 15.6799 62.51V62.52C15.6799 64.0057 16.8843 65.21 18.3699 65.21H34.1599C35.6456 65.21 36.8499 64.0057 36.8499 62.52V62.51C36.8499 61.0244 35.6456 59.82 34.1599 59.82Z" fill="url(#paint0_linear_598_225)"/>
<path d="M30.6299 67.21H21.8899C20.4043 67.21 19.2 68.4144 19.2 69.9V69.91C19.2 71.3957 20.4043 72.6 21.8899 72.6H30.6299C32.1156 72.6 33.32 71.3957 33.32 69.91V69.9C33.32 68.4144 32.1156 67.21 30.6299 67.21Z" fill="url(#paint1_linear_598_225)"/>
<path fill-rule="evenodd" clip-rule="evenodd" d="M24.8001 0.0399989C11.3901 0.769999 0.510073 11.87 0.0200733 25.29C-0.329927 34.97 4.56007 43.51 12.0801 48.34C15.2701 50.39 17.1401 52.48 17.1401 56.28V57.63H35.3901V56.28C35.3901 52.46 37.3001 50.38 40.5101 48.31C47.7401 43.64 52.5201 35.53 52.5201 26.28C52.5201 11.27 39.9701 -0.780001 24.8001 0.0399989ZM44.7501 28.02C44.7501 29.31 43.7101 30.35 42.4201 30.35C41.4501 30.35 40.6001 30.96 40.2501 31.86C40.1601 32.09 40.0701 32.32 39.9701 32.55C39.5801 33.44 39.7501 34.47 40.4401 35.16C41.3501 36.07 41.3501 37.54 40.4401 38.45L38.2401 40.65C37.3301 41.56 35.8601 41.56 34.9501 40.65C34.2601 39.96 33.2301 39.79 32.3401 40.18C32.1101 40.28 31.8801 40.38 31.6501 40.46C30.7501 40.81 30.1401 41.66 30.1401 42.63C30.1401 43.92 29.1001 44.96 27.8101 44.96H24.7101C23.4201 44.96 22.3801 43.92 22.3801 42.63C22.3801 41.66 21.7701 40.81 20.8701 40.46C20.6401 40.37 20.4101 40.28 20.1801 40.18C19.2901 39.79 18.2601 39.96 17.5701 40.65C16.6601 41.56 15.1901 41.56 14.2801 40.65L12.0801 38.45C11.1701 37.54 11.1701 36.07 12.0801 35.16C12.7701 34.47 12.9401 33.44 12.5501 32.55C12.4501 32.32 12.3501 32.09 12.2701 31.86C11.9201 30.96 11.0701 30.35 10.1001 30.35C8.81007 30.35 7.77007 29.31 7.77007 28.02V24.92C7.77007 23.63 8.81007 22.59 10.1001 22.59C11.0701 22.59 11.9201 21.98 12.2701 21.08C12.3601 20.85 12.4501 20.62 12.5501 20.39C12.9401 19.5 12.7701 18.47 12.0801 17.78C11.1701 16.87 11.1701 15.4 12.0801 14.49L14.2801 12.29C15.1901 11.38 16.6601 11.38 17.5701 12.29C18.2601 12.98 19.2901 13.15 20.1801 12.76C20.4101 12.66 20.6401 12.56 20.8701 12.48C21.7701 12.13 22.3801 11.28 22.3801 10.31C22.3801 9.02 23.4201 7.98 24.7101 7.98H27.8101C29.1001 7.98 30.1401 9.02 30.1401 10.31C30.1401 11.28 30.7501 12.13 31.6501 12.48C31.8801 12.57 32.1101 12.66 32.3401 12.76C33.2301 13.15 34.2601 12.98 34.9501 12.29C35.8601 11.38 37.3301 11.38 38.2401 12.29L40.4401 14.49C41.3501 15.4 41.3501 16.87 40.4401 17.78C39.7501 18.47 39.5801 19.5 39.9701 20.39C40.0701 20.62 40.1701 20.85 40.2501 21.08C40.6001 21.98 41.4501 22.59 42.4201 22.59C43.7101 22.59 44.7501 23.63 44.7501 24.92V28.02Z" fill="url(#paint2_linear_598_225)"/>
<path d="M26.2602 36.06C31.5566 36.06 35.8502 31.7664 35.8502 26.47C35.8502 21.1736 31.5566 16.88 26.2602 16.88C20.9638 16.88 16.6702 21.1736 16.6702 26.47C16.6702 31.7664 20.9638 36.06 26.2602 36.06Z" fill="url(#paint3_linear_598_225)"/>
</g>
<defs>
<linearGradient id="paint0_linear_598_225" x1="26.2599" y1="85.26" x2="26.2599" y2="48.14" gradientUnits="userSpaceOnUse">
<stop offset="0.07" stop-color="#B86AF5" stop-opacity="0"/>
<stop offset="0.98" stop-color="#971DF5"/>
</linearGradient>
<linearGradient id="paint1_linear_598_225" x1="26.26" y1="92.65" x2="26.26" y2="55.54" gradientUnits="userSpaceOnUse">
<stop offset="0.07" stop-color="#B86AF5" stop-opacity="0"/>
<stop offset="0.98" stop-color="#971DF5"/>
</linearGradient>
<linearGradient id="paint2_linear_598_225" x1="26.2601" y1="82.31" x2="26.2601" y2="1.08" gradientUnits="userSpaceOnUse">
<stop offset="0.07" stop-color="#B86AF5" stop-opacity="0"/>
<stop offset="0.98" stop-color="#971DF5"/>
</linearGradient>
<linearGradient id="paint3_linear_598_225" x1="26.2602" y1="44.28" x2="26.2602" y2="17.25" gradientUnits="userSpaceOnUse">
<stop offset="0.07" stop-color="#B86AF5" stop-opacity="0"/>
<stop offset="0.98" stop-color="#971DF5"/>
</linearGradient>
<clipPath id="clip0_598_225">
<rect width="52.52" height="72.6" fill="white"/>
</clipPath>
</defs>
</svg>
